<svg xmlns="http://www.w3.org/2000/svg" xmlns:xlink="http://www.w3.org/1999/xlink" version="1.1" x="0px" y="0px" stroke="cyan" fill="cyan" viewBox="0 0 100 125" enable-background="new 0 0 100 100" xml:space="preserve"><g><path d="M55.986,46.15H73c0.828,0,1.5-0.672,1.5-1.5s-0.672-1.5-1.5-1.5H55.986c-0.828,0-1.5,0.672-1.5,1.5   S55.158,46.15,55.986,46.15z"/><path d="M88.75,54.4H69.037c-0.828,0-1.5,0.672-1.5,1.5s0.672,1.5,1.5,1.5H88.75c0.828,0,1.5-0.672,1.5-1.5S89.578,54.4,88.75,54.4   z"/><path d="M80.531,64.65H65.024c-0.828,0-1.5,0.672-1.5,1.5s0.672,1.5,1.5,1.5h15.507c0.828,0,1.5-0.672,1.5-1.5   S81.359,64.65,80.531,64.65z"/><path d="M55.986,36.9h26.697c0.828,0,1.5-0.671,1.5-1.5s-0.672-1.5-1.5-1.5H55.986c-0.828,0-1.5,0.671-1.5,1.5   S55.158,36.9,55.986,36.9z"/><circle cx="36.444" cy="44.891" r="1.826"/><path d="M65,52.625c0-0.828-0.672-1.5-1.5-1.5H51.583V24.792c0-0.829-0.671-1.5-1.5-1.5H37.763c-5.805,0-10.608,4.323-11.389,9.917   H11.25c-0.829,0-1.5,0.671-1.5,1.5v40.5c0,0.828,0.671,1.5,1.5,1.5H38c0.829,0,1.5-0.672,1.5-1.5v-4.917h9.628h0.956   c0.151,0,0.293-0.029,0.43-0.07C58.618,69.516,65,62.703,65,54.419V52.625z M36.5,73.708H12.75v-37.5h13.5v9.224l-8.043,3.128   c-0.571,0.223-0.949,0.769-0.957,1.381c-0.007,0.611,0.358,1.167,0.923,1.402l8.077,3.365v14.083c0,0.828,0.671,1.5,1.5,1.5h8.75   V73.708z M26.25,48.651v2.808l-3.485-1.452L26.25,48.651z M62,54.419c0,0.763-0.079,1.507-0.207,2.235   c-0.014,0-0.028-0.004-0.043-0.004H43.736c-0.829,0-1.5,0.672-1.5,1.5s0.671,1.5,1.5,1.5h17.142   c-0.302,0.676-0.654,1.325-1.063,1.934H48.125c-0.829,0-1.5,0.672-1.5,1.5s0.671,1.5,1.5,1.5h8.872   c-2.179,1.691-4.904,2.708-7.869,2.708H38.25h-9V53.708v-7.25V34.804c0-4.694,3.819-8.512,8.513-8.512h10.821v24.833H38.25   c-0.829,0-1.5,0.672-1.5,1.5s0.671,1.5,1.5,1.5H62V54.419z"/></g></svg>